<?xml version="1.0" standalone="no"?>
<!DOCTYPE svg PUBLIC "-//W3C//DTD SVG 20010904//EN"
 "http://www.w3.org/TR/2001/REC-SVG-20010904/DTD/svg10.dtd">
<svg version="1.0" xmlns="http://www.w3.org/2000/svg"
 width="200.000000pt" height="81.000000pt" viewBox="0 0 200.000000 81.000000"
 preserveAspectRatio="xMidYMid meet">
<metadata>
Created by potrace 1.10, written by Peter Selinger 2001-2011
</metadata>
<g transform="translate(0.000000,81.000000) scale(0.100000,-0.100000)"
fill="#000000" stroke="none">
<path d="M10 395 l0 -395 990 0 990 0 0 395 0 395 -990 0 -990 0 0 -395z
m1960 0 l0 -375 -970 0 -970 0 0 375 0 375 970 0 970 0 0 -375z"/>
<path d="M1071 676 c-5 -13 -17 -26 -25 -29 -12 -5 -15 -14 -10 -31 3 -13 1
-27 -5 -30 -6 -4 -11 -18 -11 -31 0 -13 -7 -28 -16 -33 -13 -7 -14 -13 -5 -31
13 -23 51 -29 51 -8 0 11 54 50 72 51 3 1 18 11 32 24 15 12 30 22 35 22 5 0
13 9 16 21 10 32 -21 59 -67 59 -21 0 -37 3 -37 8 6 37 -17 44 -30 8z m103
-59 c-4 -11 -106 -78 -111 -73 -10 10 26 68 47 75 38 14 70 13 64 -2z"/>
<path d="M645 668 c-34 -18 -96 -87 -106 -118 -12 -34 1 -65 31 -75 21 -7 116
20 125 35 7 12 -27 22 -38 11 -5 -5 -16 -7 -23 -4 -8 3 -14 1 -14 -3 0 -5 -11
-9 -25 -9 -14 0 -25 4 -25 9 0 22 47 77 88 102 27 18 41 33 37 42 -3 7 -5 16
-5 18 0 8 -25 3 -45 -8z"/>
<path d="M825 657 c-73 -41 -107 -124 -67 -160 21 -19 72 -23 72 -6 0 5 4 8 9
4 5 -3 17 2 25 11 9 8 16 12 16 8 0 -4 14 5 30 21 39 37 38 62 -6 108 -19 20
-36 37 -37 37 -1 0 -20 -10 -42 -23z m72 -53 c8 -21 -21 -47 -74 -67 -36 -14
-43 -15 -43 -3 0 8 5 18 10 21 6 4 7 12 4 18 -4 7 -4 9 1 5 4 -4 21 4 37 17
34 29 56 32 65 9z"/>
<path d="M1272 655 c-7 -14 -12 -34 -12 -44 0 -22 30 -51 53 -51 22 0 21 -12
-4 -62 -20 -39 -20 -42 -4 -54 20 -15 39 -8 31 11 -5 14 71 137 104 167 11 10
17 25 14 33 -11 29 -44 16 -76 -30 -23 -32 -39 -45 -56 -45 -22 0 -23 3 -17
28 13 45 11 66 -6 70 -9 1 -20 -8 -27 -23z"/>
<path d="M1068 335 c-6 -13 -20 -27 -30 -31 -14 -4 -16 -9 -9 -18 11 -13 -13
-96 -31 -107 -14 -9 -3 -38 17 -45 9 -4 26 3 39 15 12 11 26 21 31 21 4 0 14
8 22 18 9 10 12 11 7 2 -4 -8 -3 -12 1 -7 5 4 28 24 52 44 24 20 43 41 43 45
0 21 -42 48 -75 48 -19 0 -34 3 -34 8 6 38 -16 43 -33 7z m100 -57 c-4 -13
-99 -80 -105 -75 -1 2 1 16 5 33 6 21 18 32 43 41 45 16 62 16 57 1z"/>
<path d="M163 318 c-40 -69 -71 -148 -66 -168 7 -27 39 -22 36 5 -1 11 6 30
15 43 l18 23 48 -57 c44 -51 51 -55 80 -50 17 4 39 7 50 7 10 0 20 9 23 20 3
10 10 19 15 19 5 0 6 5 2 12 -4 6 -3 8 4 4 6 -3 22 -1 36 5 32 15 41 7 25 -19
-14 -22 -5 -56 14 -50 6 3 13 20 15 39 2 19 10 39 19 46 8 6 12 17 8 24 -5 6
-8 35 -9 63 -1 44 -4 51 -22 54 -16 2 -35 -14 -74 -60 -29 -35 -60 -78 -68
-95 -20 -43 -42 -42 -92 3 -40 37 -50 54 -28 54 14 0 78 48 78 59 0 13 -47 30
-69 24 -15 -4 -21 -1 -21 11 0 26 -17 19 -37 -16z m317 -22 c0 -19 -25 -65
-38 -70 -9 -3 -23 -9 -30 -12 -15 -7 9 35 38 68 14 15 30 23 30 14z"/>
<path d="M1529 307 c-38 -61 -69 -124 -69 -141 0 -24 31 -35 63 -22 15 7 24
16 20 20 -4 4 0 4 10 0 9 -3 17 -2 17 4 0 5 6 10 13 9 39 -1 58 4 51 15 -5 7
-2 9 9 5 8 -3 21 1 27 9 12 13 7 18 -13 15 -55 -10 -133 -18 -139 -15 -4 3 6
19 22 36 30 32 47 79 35 98 -11 17 -19 11 -46 -33z"/>
<path d="M1770 335 c-23 -28 -70 -130 -70 -152 0 -33 27 -53 68 -52 34 0 90
16 67 19 -5 0 -1 7 10 16 19 14 19 15 -10 9 -16 -3 -47 -9 -69 -12 -37 -6 -38
-5 -31 18 9 29 22 39 55 39 33 0 54 15 45 29 -4 8 -18 10 -36 6 -17 -4 -29 -2
-29 4 0 11 15 16 74 26 41 7 39 21 -4 27 -14 1 -23 7 -22 12 4 8 -16 26 -29
26 -4 0 -12 -7 -19 -15z"/>
<path d="M675 332 c-61 -14 -131 -115 -103 -151 22 -27 32 -31 62 -25 15 3 27
2 24 -2 -2 -5 -10 -21 -18 -37 -10 -20 -10 -31 -2 -39 19 -19 39 -1 50 44 6
25 21 53 32 63 23 21 25 38 7 54 -10 8 -19 4 -36 -19 -17 -23 -29 -30 -56 -30
-19 0 -35 5 -35 11 0 23 77 89 104 89 16 0 26 6 26 15 0 18 -29 33 -55 27z"/>
<path d="M882 330 c-75 -18 -87 -62 -29 -111 l30 -25 -30 -13 c-17 -7 -40 -11
-52 -9 -11 2 -20 0 -21 -4 -1 -23 2 -28 21 -38 22 -13 63 -1 106 29 33 24 28
48 -17 77 -48 32 -41 47 22 49 44 1 58 16 38 40 -14 16 -19 17 -68 5z"/>
<path d="M1300 279 c-74 -88 -83 -105 -76 -134 8 -33 31 -32 45 3 7 16 17 29
24 30 7 1 24 4 39 8 27 6 27 6 15 -25 -9 -24 -9 -33 1 -43 17 -17 32 6 32 50
0 17 4 32 9 32 4 0 8 30 7 68 -1 61 -3 67 -23 70 -16 2 -34 -13 -73 -59z m80
17 c0 -26 -26 -64 -51 -73 l-31 -12 17 25 c24 37 48 64 57 64 5 0 8 -2 8 -4z"/>
</g>
</svg>
